<svg width="54" height="40" viewBox="0 0 54 40" fill="none" xmlns="http://www.w3.org/2000/svg">
<path d="M40.6394 15.5H37.7766C36.9265 12.2397 35.17 9.28097 32.7067 6.95989C30.2434 4.63881 27.172 3.04848 23.8416 2.36962C20.5111 1.69076 17.0552 1.95059 13.8664 3.11958C10.6776 4.28857 7.88388 6.31985 5.80265 8.98261C3.72143 11.6454 2.43615 14.8328 2.09288 18.1828C1.7496 21.5328 2.36208 24.9109 3.86074 27.9334C5.35939 30.9559 7.68411 33.5015 10.5707 35.281C13.4574 37.0605 16.7902 38.0025 20.1905 38H40.6394C43.6525 38 46.5421 36.8147 48.6726 34.7049C50.8031 32.5952 52 29.7337 52 26.75C52 23.7663 50.8031 20.9048 48.6726 18.795C46.5421 16.6853 43.6525 15.5 40.6394 15.5Z" fill="#131313" stroke="#131313" stroke-width="4" stroke-linecap="round" stroke-linejoin="round"/>
</svg>
