<svg width="40" height="40" viewBox="0 0 40 40" fill="none" xmlns="http://www.w3.org/2000/svg">
<path d="M10 13.0769C10 13.0769 16.0948 18.7029 20 22.3077M20 22.3077C23.9052 18.7029 30 13.0769 30 13.0769M20 22.3077C20 13.6561 20 2 20 2M38 26.9231V34.3077C38 35.287 37.5786 36.2261 36.8284 36.9185C36.0783 37.611 35.0609 38 34 38H6C4.93913 38 3.92172 37.611 3.17157 36.9185C2.42143 36.2261 2 35.287 2 34.3077V26.9231H38Z" stroke="#131313" stroke-width="4" stroke-linecap="round" stroke-linejoin="round"/>
<path d="M32 31.1155C32.8667 31.1155 33.4997 31.7548 33.5 32.4612C33.5 33.1677 32.8669 33.8079 32 33.8079C31.1331 33.8079 30.5 33.1677 30.5 32.4612C30.5003 31.7548 31.1333 31.1155 32 31.1155Z" fill="white" stroke="white"/>
</svg>
