<svg width="16" height="16" viewBox="0 0 16 16" fill="none" xmlns="http://www.w3.org/2000/svg">
<g clip-path="url(#clip0_99_10923)">
<path d="M6.15039 12.541C6.88958 12.6164 7.46663 13.241 7.4668 14C7.46666 14.8097 6.80971 15.4665 6 15.4668C5.24088 15.4666 4.61629 14.8897 4.54102 14.1504L4.5332 14L4.54102 13.8506C4.616 13.111 5.24067 12.5334 6 12.5332L6.15039 12.541ZM13.4834 12.541C14.2227 12.6162 14.8006 13.2408 14.8008 14C14.8006 14.8096 14.1435 15.4664 13.334 15.4668C12.5747 15.4668 11.9503 14.8898 11.875 14.1504L11.8672 14L11.875 13.8506C11.95 13.1109 12.5745 12.5332 13.334 12.5332L13.4834 12.541ZM6 13.8672C5.92662 13.8674 5.86736 13.9266 5.86719 14L5.87793 14.0518C5.89816 14.0994 5.94497 14.1337 6 14.1338C6.05514 14.1336 6.10294 14.0996 6.12305 14.0518L6.13379 14L6.12305 13.9482C6.10957 13.9165 6.08347 13.8914 6.05176 13.8779L6 13.8672ZM13.334 13.8672C13.2605 13.8672 13.2004 13.9265 13.2002 14L13.2109 14.0518C13.2312 14.0996 13.2788 14.1338 13.334 14.1338C13.3889 14.1335 13.436 14.0995 13.4561 14.0518L13.4668 14L13.4561 13.9482C13.4426 13.9168 13.4172 13.8915 13.3857 13.8779L13.334 13.8672ZM3.47363 -0.121094C3.79273 -0.0643774 4.05264 0.182823 4.11816 0.509766L4.65625 3.2002H15.334C15.5721 3.20044 15.7984 3.30675 15.9502 3.49023C16.1019 3.67389 16.1638 3.91635 16.1191 4.15039L15.0527 9.74316L15.0518 9.75C14.9541 10.2408 14.6866 10.6823 14.2969 10.9961C13.911 11.3066 13.4286 11.4717 12.9336 11.4658V11.4668H6.4541V11.4658C5.9591 11.4719 5.47682 11.3065 5.09082 10.9961C4.70128 10.6825 4.43377 10.2413 4.33594 9.75098L2.67773 1.4668H0.666992C0.225246 1.4668 -0.132681 1.10871 -0.132812 0.666992C-0.132812 0.225164 0.225164 -0.132812 0.666992 -0.132812H3.33398L3.47363 -0.121094Z" fill="#131313"/>
</g>
<defs>
<clipPath id="clip0_99_10923">
<rect width="16" height="16" fill="white"/>
</clipPath>
</defs>
</svg>
