<svg width="87" height="36" viewBox="0 0 87 36" fill="none" xmlns="http://www.w3.org/2000/svg">
<path fill-rule="evenodd" clip-rule="evenodd" d="M86.7692 18.6008C86.7692 12.4486 83.7805 7.59413 78.0682 7.59413C72.3318 7.59413 68.861 12.4486 68.861 18.5527C68.861 25.7864 72.9585 29.4393 78.8395 29.4393C81.7077 29.4393 83.8769 28.7904 85.5159 27.8772V23.0708C83.8769 23.8878 81.9969 24.3925 79.6108 24.3925C77.2728 24.3925 75.2 23.5754 74.9349 20.7397H86.721C86.721 20.4272 86.7692 19.1776 86.7692 18.6008ZM74.8626 16.3178C74.8626 13.6021 76.5256 12.4726 78.0441 12.4726C79.5144 12.4726 81.081 13.6021 81.081 16.3178H74.8626ZM59.5574 7.59413C57.1954 7.59413 55.6769 8.6996 54.8333 9.46863L54.52 7.97864H49.2174V36L55.2431 34.7263L55.2672 27.9252C56.1349 28.5501 57.4123 29.4393 59.5333 29.4393C63.8477 29.4393 67.7764 25.9786 67.7764 18.3605C67.7523 11.3912 63.7754 7.59413 59.5574 7.59413ZM58.1113 24.1522C56.6892 24.1522 55.8456 23.6475 55.2672 23.0227L55.2431 14.1068C55.8697 13.4099 56.7374 12.9292 58.1113 12.9292C60.3046 12.9292 61.8231 15.3805 61.8231 18.5287C61.8231 21.749 60.3287 24.1522 58.1113 24.1522ZM40.9262 6.17624L46.9759 4.8785V0L40.9262 1.2737V6.17624ZM40.9262 8.00267H46.9759V29.0307H40.9262V8.00267ZM34.4426 9.78104L34.0569 8.00267H28.8508V29.0307H34.8764V14.7797C36.2985 12.9292 38.7087 13.2657 39.4559 13.53V8.00267C38.6846 7.71429 35.8646 7.18558 34.4426 9.78104ZM22.3913 2.78772L16.5103 4.03738L16.4862 23.287C16.4862 26.8438 19.1615 29.4633 22.7287 29.4633C24.7051 29.4633 26.1513 29.1028 26.9467 28.6702V23.7917C26.1754 24.1041 22.3672 25.2096 22.3672 21.6529V13.1215H26.9467V8.00267H22.3672L22.3913 2.78772ZM6.09795 14.1068C6.09795 13.1696 6.86923 12.8091 8.14667 12.8091C9.97846 12.8091 12.2923 13.3618 14.1241 14.3471V8.6996C12.1236 7.90654 10.1472 7.59413 8.14667 7.59413C3.25385 7.59413 0 10.1415 0 14.3952C0 21.028 9.15897 19.9706 9.15897 22.8304C9.15897 23.9359 8.19487 24.2964 6.84513 24.2964C4.84462 24.2964 2.28974 23.4793 0.265128 22.3738V28.0935C2.50667 29.0547 4.77231 29.4633 6.84513 29.4633C11.8585 29.4633 15.3051 26.988 15.3051 22.6862C15.281 15.5247 6.09795 16.7984 6.09795 14.1068Z" fill="#131313"/>
</svg>
